#!OML:ASF E:/inclinewalkrobotboard/Project1/Captureday1/Session1/subject1.ASF
:FULLY-SPECIFIED
:DEGREES
188
root 0 0 0 1.1081008355369333 -3.740195803590776 1.8028261718292002
lowerback 11.995106467789512 0.8619984834739672 -0.07696263530340422
upperback -4.182716584046444 1.0910086331667754 -0.5396554246968153
thorax -11.29746098992539 0.50037982302868 -0.7746348424542961
lowerneck -5.922514886701633 1.470260361363191 4.520506194506367
upperneck 18.041607812733723 2.91565931027284 -8.266222474653967
head 6.616139155844104 1.061803912097767 -3.1942439482276983
rclavicle -1.2299837382978565E-15 4.0086976976399105E-16
rhumerus 19.642668766716497 14.04868106815669 -47.80881887767775
rradius 72.07224437635938
rwrist 27.21845819799094
rhand -34.88402641076968 -57.53039277001621
rfingers 7.125020000000043
rthumb -8.02545591842766 -87.30998859545267
lclavicle 1.0830385473428187E-15 -2.7049206271350923E-15
lhumerus 20.60050154957413 -12.312085125036589 45.6186931574877
lradius 69.53577910152144
lwrist -22.203812940505586
lhand -44.75867035102119 -70.16296090525029
lfingers 7.125020000000015
lthumb -17.566450384311974 -41.056277746040834
rfemur -25.18996673160743 -2.162308704039749 16.89658116534818
rtibia 54.19708980030238
rfoot -28.22644450808876 -16.764461582802237
rtoes -17.855934669452033
lfemur -27.443189232195405 2.481508311956606 -18.264337629750237
ltibia 53.656897673509356
lfoot -31.887488407254402 -3.2520541306951753
ltoes -19.56931497688975
189
root 0 0 0 1.108176199036802 -3.7401591611923237 1.8028385978991195
lowerback 11.995060544939816 0.8619828933112917 -0.07696066166664123
upperback -4.18281060657917 1.0909856501877102 -0.5396716293458446
thorax -11.297539126322913 0.5003698600799209 -0.7746459330576664
lowerneck -5.922630493855758 1.4703029621062096 4.520408536959532
upperneck 18.041892279121146 2.9157190670920192 -8.266057076377084
head 6.616254379154428 1.0618310439111918 -3.1941754349634612
rclavicle -1.216059588328053E-15 3.952388848730786E-16
rhumerus 19.64340544527717 14.049774070629834 -47.80891654345514
rradius 72.07208145651865
rwrist 27.217788732683037
rhand -34.88369935506927 -57.52946106427828
rfingers 7.125020000000043
rthumb -8.025189931549448 -87.309127722579
lclavicle 1.097579960218687E-15 -2.7197547210802137E-15
lhumerus 20.596461890707452 -12.311132017860706 45.620640681502
lradius 69.53284395196992
lwrist -22.20244103851263
lhand -44.75744289637673 -70.15692106945235
lfingers 7.125020000000015
lthumb -17.565210549574374 -41.050866901368224
rfemur -25.19112104589259 -2.162370777887022 16.896145566760794
rtibia 54.19867908500717
rfoot -28.22576660017844 -16.763790490704906
rtoes -17.85488862836693
lfemur -27.441597387341798 2.4819386821142135 -18.264604485504222
ltibia 53.66140766383015
lfoot -31.883703423985907 -3.2537874192186553
ltoes -19.565709672227573
190
root 0 0 0 1.1080969069876776 -3.740045285363901 1.8028739139011911
lowerback 11.995306351598327 0.8620181905972704 -0.0769830052973689
upperback -4.182606524280889 1.091036143453691 -0.5396662560043962
thorax -11.297457430188018 0.5003915466479173 -0.7746439151861436
lowerneck -5.922472459076702 1.4701856606000754 4.520531188242157
upperneck 18.041186124092267 2.915535563770108 -8.26630289970548
head 6.615995394204583 1.0617514844364702 -3.194277910843321
rclavicle -1.2386902396071261E-15 4.026070016616013E-16
rhumerus 19.641079982587357 14.047033038988397 -47.80828656619057
rradius 72.0705102933745
rwrist 27.21892812962339
rhand -34.88408915287054 -57.530132119142095
rfingers 7.125020000000043
rthumb -8.025574527556378 -87.30969182210856
lclavicle 1.0664355934963389E-15 -2.7115563271746147E-15
lhumerus 20.599429139372027 -12.313109815170538 45.61758838570139
lradius 69.53469364076247
lwrist -22.20378827230867
lhand -44.75722056880359 -70.15263953734171
lfingers 7.125020000000015
lthumb -17.564998434867658 -41.04604825003838
rfemur -25.191087754858682 -2.16243812900826 16.89646196234904
rtibia 54.1980853865346
rfoot -28.226719318973647 -16.764550087941455
rtoes -17.854915813738387
lfemur -27.442861166431808 2.482203856345412 -18.264946874120632
ltibia 53.66166857535016
lfoot -31.885794268920673 -3.2530568199888537
ltoes -19.563286705059504
191
root 0 0 0 1.1080061805667438 -3.740128265771613 1.8028492237428868
lowerback 11.995328343155334 0.8620142529570662 -0.07694482193664687
upperback -4.182534804188363 1.0910397037761645 -0.5396392958009051
thorax -11.29738962387176 0.50039177204779 -0.7746377795770867
lowerneck -5.922209803769315 1.4701334894824567 4.520605807600305
upperneck 18.040921502008278 2.9154723457052882 -8.266474923239805
head 6.615864696280089 1.0617234290860034 -3.194349180334634
rclavicle -1.2340490342977891E-15 3.9822270081532975E-16
rhumerus 19.641250732461494 14.047299291077541 -47.80826644531381
rradius 72.07050320659746
rwrist 27.2187058288076
rhand -34.883534969658434 -57.52914766793518
rfingers 7.125020000000043
rthumb -8.02503832132751 -87.30871040126166
lclavicle 1.0732001088431828E-15 -2.7169751226509784E-15
lhumerus 20.59937180386917 -12.313438949984825 45.61707642561344
lradius 69.53477750806822
lwrist -22.20387942371302
lhand -44.75684943340631 -70.15069217604744
lfingers 7.125020000000015
lthumb -17.564643636470056 -41.044070134767196
rfemur -25.19116683252575 -2.162447608340424 16.896471464665098
rtibia 54.19812802218006
rfoot -28.226857442435858 -16.764570951606558
rtoes -17.854877308653165
lfemur -27.442879153999765 2.482287664908797 -18.26495839030482
ltibia 53.66168199816021
lfoot -31.885955798636132 -3.2529805317484084
ltoes -19.56344129325359
192
root 0 0 0 1.107954749793112 -3.74018435896696 1.802831751147801
lowerback 11.995325385718985 0.8620104991623382 -0.07692270060734252
upperback -4.182505914130635 1.0910393427087928 -0.539623752305671
thorax -11.297355303437053 0.5003908893532298 -0.77463352494085
lowerneck -5.922072831651565 1.4701129454699897 4.520640871821027
upperneck 18.0408162247679 2.915450302435251 -8.266556691912637
head 6.615806937058408 1.0617135777308304 -3.1943825704577864
rclavicle -1.2351822319916983E-15 3.990177264933084E-16
rhumerus 19.641333013547253 14.047369182612059 -47.80819595128089
rradius 72.070559725993
rwrist 27.218726885795597
rhand -34.88339584791136 -57.529029105432926
rfingers 7.125020000000043
rthumb -8.024901660052377 -87.30859016147967
lclavicle 1.0714813841462564E-15 -2.7159463483575326E-15
lhumerus 20.59948485660708 -12.313581564161295 45.61698495549768
lradius 69.53486954217665
lwrist -22.203881610584666
lhand -44.756817232163776 -70.15032267440662
lfingers 7.125020000000015
lthumb -17.56461211988845 -41.043703722194465
rfemur -25.191170994262453 -2.1624469866314353 16.896481397456533
rtibia 54.1981194422155
rfoot -28.226901063740968 -16.76458332676967
rtoes -17.854858625927427
lfemur -27.442840485117905 2.482313064829031 -18.26494134756727
ltibia 53.66164679184371
lfoot -31.885996988781837 -3.2529318664414975
ltoes -19.563674323268483
